HIERARCHY
ROOT hip
{
	OFFSET 0.000000 0.000000 0.000000 
	CHANNELS 6 Xposition Yposition Zposition Xrotation Zrotation Yrotation
	JOINT abdomen
	{
		OFFSET 0.000000 3.402643 0.000000 
		CHANNELS 3 Xrotation Zrotation Yrotation
		JOINT chest
		{
			OFFSET 0.000000 8.438565 -0.680529 
			CHANNELS 3 Xrotation Zrotation Yrotation
			JOINT neck
			{
				OFFSET 0.000000 10.207942 -0.272212 
				CHANNELS 3 Xrotation Zrotation Yrotation
				JOINT head
				{
					OFFSET 0.000000 3.130431 0.000000 
					CHANNELS 3 Xrotation Zrotation Yrotation
					End Site
					{
						OFFSET 0.000000 3.130435 0.000000 
					}
				}
			}
			JOINT lCollar
			{
				OFFSET 3.470700 6.669187 -0.816635 
				CHANNELS 3 Yrotation Zrotation Xrotation
				JOINT lShldr
				{
					OFFSET 3.198488 0.000000 0.000000 
					CHANNELS 3 Zrotation Yrotation Xrotation
					JOINT lForeArm
					{
						OFFSET 10.139888 0.000000 0.000000 
						CHANNELS 3 Yrotation Zrotation Xrotation
						JOINT lHand
						{
							OFFSET 8.370511 0.000000 0.000000 
							CHANNELS 3 Zrotation Yrotation Xrotation
							End Site
							{
								OFFSET 4.083176 0.000000 0.000000 
							}
						}
					}
				}
			}
			JOINT rCollar
			{
				OFFSET -3.470700 6.669187 -0.816635 
				CHANNELS 3 Yrotation Zrotation Xrotation
				JOINT rShldr
				{
					OFFSET -3.198488 0.000000 0.000000 
					CHANNELS 3 Zrotation Yrotation Xrotation
					JOINT rForeArm
					{
						OFFSET -10.139888 0.000000 0.000000 
						CHANNELS 3 Yrotation Zrotation Xrotation
						JOINT rHand
						{
							OFFSET -8.370511 0.000000 0.000000 
							CHANNELS 3 Zrotation Yrotation Xrotation
							End Site
							{
								OFFSET -4.083176 0.000000 0.000000 
							}
						}
					}
				}
			}
		}
	}
	JOINT lThigh
	{
		OFFSET 5.308129 -1.633274 1.361059 
		CHANNELS 3 Xrotation Zrotation Yrotation
		JOINT lShin
		{
			OFFSET -2.041588 -20.007561 0.000000 
			CHANNELS 3 Xrotation Zrotation Yrotation
			JOINT lFoot
			{
				OFFSET 0.000000 -19.190928 -1.224953 
				CHANNELS 3 Xrotation Yrotation Zrotation
				End Site
				{
					OFFSET 0.000000 -2.449906 4.627600 
				}
			}
		}
	}
	JOINT rThigh
	{
		OFFSET -5.308129 -1.633274 1.361059 
		CHANNELS 3 Xrotation Zrotation Yrotation
		JOINT rShin
		{
			OFFSET 2.041588 -20.007561 0.000000 
			CHANNELS 3 Xrotation Zrotation Yrotation
			JOINT rFoot
			{
				OFFSET 0.000000 -19.190928 -1.224953 
				CHANNELS 3 Xrotation Yrotation Zrotation
				End Site
				{
					OFFSET 0.000000 -2.449906 4.627600 
				}
			}
		}
	}
}
MOTION
Frames: 6
Frame Time: 0.033333
-0.619426 37.127811 -32.583775 -0.175781 -5.458984 -37.626953 39.072269 -7.070312 0.897235 -16.396484 -7.412109 3.377646 -22.167971 3.476563 16.035152 2.705078 5.537109 15.997036 8.613282 15.498048 0.700516 -38.964844 -76.689453 -29.277082 -89.765625 -2.890625 -30.019039 20.585938 -10.546876 -3.681640 -14.296874 -6.699219 0.255045 57.246090 72.070313 9.833985 93.251953 2.861328 -25.742188 -10.595703 2.382812 -0.566406 -56.422794 27.059427 -6.166396 64.564331 0.365177 -3.875311 2.602588 -9.897995 -6.658523 -32.130058 -13.719458 13.672847 89.983208 -3.358852 3.628509 -17.689297 37.883518 18.506611 
-1.325912 37.565090 -33.808891 -1.582031 -5.458984 -34.121094 37.656250 -5.986328 2.411091 -14.794921 -8.632813 4.031737 -21.005857 2.089844 14.033560 3.769531 5.546875 13.790006 8.974609 15.332031 0.634765 -53.457027 -78.027344 -12.470491 -93.261719 -2.695313 -25.722195 20.302736 -12.460938 -4.367340 -13.828125 -5.371094 0.107422 60.312496 72.558594 6.748046 97.060547 2.998047 -30.605467 -10.947265 3.085937 -0.585412 -53.857170 24.736202 -7.386821 58.409790 0.443965 -3.743898 6.419737 -9.843818 -6.041309 -29.112171 -11.600478 13.292336 88.077049 -2.997531 3.224994 -21.029911 37.011887 19.943825 
-2.143550 38.156582 -35.300777 -2.470703 -4.921875 -28.487165 35.693363 -4.091797 3.583287 -13.544923 -10.908204 4.355469 -19.443361 1.181641 11.289063 5.175781 5.908203 11.250001 9.599609 15.917970 0.729743 -77.617188 -79.267578 14.892577 -95.517578 -2.587891 -23.007813 19.277344 -11.816405 -3.798828 -13.867188 -3.544922 0.010370 64.775391 71.835938 4.931641 101.699219 2.998047 -31.875509 -10.410157 2.041015 -0.556641 -51.825554 22.408787 -7.889420 49.629333 -0.137132 -3.649930 12.907250 -12.146781 -4.880323 -26.047947 -9.139590 11.174893 85.775658 -2.831734 3.516880 -26.019302 31.789274 21.747940 
-3.056511 38.817093 -37.014263 -2.119128 -4.228436 -21.104113 33.027344 -1.992188 3.905911 -12.636719 -14.248048 3.583984 -17.333984 1.494141 8.281505 6.757813 6.962891 8.370325 10.029296 17.197266 0.693360 -105.673828 -78.027344 47.216797 -96.035156 -2.558594 -19.677732 18.759766 -10.410156 -3.251953 -14.248047 -0.810547 -0.048828 67.519531 68.339844 3.691406 106.347656 3.203125 -31.650694 -10.937499 1.005859 -0.409985 -51.158745 20.828957 -5.052859 40.704517 -0.666537 -2.714497 21.059702 -16.253916 -1.550871 -23.746410 -6.317728 7.230255 83.689011 -2.314291 3.406128 -30.614090 23.489893 20.697065 
-4.058859 39.412079 -38.833672 -1.416016 -3.876953 -12.315115 30.371092 -0.214844 3.242187 -12.089843 -16.347654 2.155455 -15.771484 1.318359 5.664265 8.349609 8.554688 5.849610 10.156250 17.568359 0.791015 -124.472656 -74.199219 70.009766 -95.878906 -2.333985 -15.575775 17.958984 -9.492188 -2.882468 -15.117188 1.025391 -0.117188 67.197266 62.636723 1.580940 110.781250 3.085938 -30.332033 -13.945313 -0.312512 -0.068412 -51.453381 19.999496 2.700602 37.008366 -0.925726 -2.422137 22.027296 -18.632095 -0.235584 -22.883402 -3.680746 1.453988 81.244659 -1.962571 3.276499 -34.032516 14.780209 17.137053 
-5.094960 39.878914 -40.650860 -0.878906 -4.052734 -3.349610 28.750002 0.351563 1.572324 -11.923828 -15.468751 0.400390 -14.394531 -0.410156 3.486328 9.765625 10.312501 3.663857 9.599608 16.093750 0.703125 49.414070 -110.917969 -100.585297 -96.015625 -2.041015 -9.550433 14.726564 -9.550781 -2.364902 -15.644529 0.849609 -0.156395 65.332031 55.380856 -0.693359 115.478516 3.046875 -32.597660 -17.626955 1.689453 -0.625000 -53.092037 19.499914 9.785454 43.679401 -0.832739 -2.915128 16.179859 -18.790823 -2.136111 -22.819731 -1.953207 -4.688682 78.614616 -1.765284 3.505297 -37.234196 7.467289 12.967157 
